<?xml version="1.0" encoding="UTF-8"?>
<svg id="_レイヤー_2" data-name="レイヤー 2" xmlns="http://www.w3.org/2000/svg" viewBox="0 0 641.03 109.62">
  <defs>
    <style>
      .cls-1 {
        fill: #fff;
      }

      .cls-2 {
        fill: #7a003f;
      }

      .cls-3 {
        fill: #ff0072;
      }
    </style>
  </defs>
  <g id="_レイヤー_1-2" data-name="レイヤー 1">
    <rect class="cls-2" y="13.46" width="641.03" height="96.15" rx="12.82" ry="12.82"/>
    <rect class="cls-3" width="641.03" height="96.15" rx="12.82" ry="12.82"/>
    <g>
      <path class="cls-1" d="M138.51,27.55v35.09h-8.35l12.65,17.41h-13.91l-12.47-17.41h-1.53v13.82h-13.37V27.55h36.97ZM114.91,54.48h10.23v-18.75h-10.23v18.75Z"/>
      <path class="cls-1" d="M184.82,27.55v44.42h-13.37v-9.33h-11.67v9.33h-13.37V27.55h38.41ZM159.78,54.48h11.67v-18.75h-11.67v18.75Z"/>
      <path class="cls-1" d="M205.37,31.23v30.78h21v8.17h-34.37V23.07h33.47v8.17h-20.1Z"/>
      <path class="cls-1" d="M246.92,43.53h23.6v8.17h-23.6v14.81h23.6v8.17h-36.97V27.55h36.97v8.17h-23.6v7.81Z"/>
      <path class="cls-1" d="M302.47,57.89v-28.54h36.88v8.17h-23.51v12.21h23.51v23.15h-35.27v-8.17h21.9v-6.82h-23.51Z"/>
      <path class="cls-1" d="M383.6,40.21h-12.74v38.95h-13.37v-38.95h-12.74v-8.17h38.86v8.17Z"/>
      <path class="cls-1" d="M427.39,27.55v44.42h-13.37v-9.33h-11.67v9.33h-13.37V27.55h38.41ZM402.36,54.48h11.67v-18.75h-11.67v18.75Z"/>
      <path class="cls-1" d="M471.55,27.55v35.09h-8.35l12.65,17.41h-13.91l-12.47-17.41h-1.53v13.82h-13.37V27.55h36.97ZM447.95,54.48h10.23v-18.75h-10.23v18.75Z"/>
      <path class="cls-1" d="M516.51,40.21h-12.74v38.95h-13.37v-38.95h-12.74v-8.17h38.86v8.17Z"/>
      <path class="cls-1" d="M530.69,64.88c3.86,0,6.91,3.05,6.91,6.91s-3.05,6.91-6.91,6.91-6.91-3.05-6.91-6.91,3.05-6.91,6.91-6.91ZM537.33,24.95v34.64h-13.37V24.95h13.37Z"/>
    </g>
  </g>
</svg>