<?xml version="1.0" encoding="UTF-8"?>
<svg id="_レイヤー_2" data-name="レイヤー 2" xmlns="http://www.w3.org/2000/svg" viewBox="0 0 641.03 109.62">
  <defs>
    <style>
      .cls-1 {
        fill: #fff;
      }

      .cls-2 {
        fill: #7a003f;
      }

      .cls-3 {
        fill: #ff0072;
      }
    </style>
  </defs>
  <g id="_レイヤー_1-2" data-name="レイヤー 1">
    <rect class="cls-2" y="13.46" width="641.03" height="96.15" rx="12.82" ry="12.82"/>
    <rect class="cls-3" width="641.03" height="96.15" rx="12.82" ry="12.82"/>
    <g>
      <path class="cls-1" d="M229.6,27.55v35.09h-8.35l12.65,17.41h-13.91l-12.47-17.41h-1.53v13.82h-13.37V27.55h36.97ZM206,54.48h10.23v-18.75h-10.23v18.75Z"/>
      <path class="cls-1" d="M250.87,43.53h23.6v8.17h-23.6v14.81h23.6v8.17h-36.97V27.55h36.97v8.17h-23.6v7.81Z"/>
      <path class="cls-1" d="M318.63,32.04v30.6h-23.6v13.82h-13.37v-44.42h36.97ZM295.03,54.48h10.23v-14.27h-10.23v14.27Z"/>
      <path class="cls-1" d="M325.81,70.18V23.16h13.37v38.86h19.47v8.17h-32.84Z"/>
      <path class="cls-1" d="M402.8,27.55v44.42h-13.37v-9.33h-11.67v9.33h-13.37V27.55h38.41ZM377.77,54.48h11.67v-18.75h-11.67v18.75Z"/>
      <path class="cls-1" d="M436.01,58.25v11.93h-13.37v-11.76l-12.65-9.15v-26.11h13.37v24.14l5.83,4.31,5.83-4.31v-21.45h13.37v23.42l-12.38,8.97Z"/>
    </g>
  </g>
</svg>