<?xml version="1.0" encoding="UTF-8"?>
<svg id="_レイヤー_2" data-name="レイヤー 2" xmlns="http://www.w3.org/2000/svg" viewBox="0 0 641.03 109.62">
  <defs>
    <style>
      .cls-1 {
        fill: #a4daff;
      }

      .cls-2 {
        fill: #fff;
      }

      .cls-3 {
        fill: #508099;
      }
    </style>
  </defs>
  <g id="_レイヤー_1-2" data-name="レイヤー 1">
    <rect class="cls-3" y="13.46" width="641.03" height="96.15" rx="12.82" ry="12.82"/>
    <rect class="cls-1" width="641.03" height="96.15" rx="12.82" ry="12.82"/>
    <g>
      <path class="cls-2" d="M174.55,57.88v-28.54h36.88v8.17h-23.51v12.2h23.51v23.15h-35.27v-8.17h21.9v-6.82h-23.51Z"/>
      <path class="cls-2" d="M231.98,43.53h23.6v8.17h-23.6v14.81h23.6v8.17h-36.97V27.55h36.97v8.17h-23.6v7.81Z"/>
      <path class="cls-2" d="M276.13,43.53h23.6v8.17h-23.6v14.81h23.6v8.17h-36.97V27.55h36.97v8.17h-23.6v7.81Z"/>
      <path class="cls-2" d="M306.92,70.18V23.16h13.37v38.86h19.47v8.17h-32.84Z"/>
      <path class="cls-2" d="M358.88,43.53h23.6v8.17h-23.6v14.81h23.6v8.17h-36.97V27.55h36.97v8.17h-23.6v7.81Z"/>
      <path class="cls-2" d="M403.03,31.23v30.78h21v8.17h-34.37V23.07h33.47v8.17h-20.1Z"/>
      <path class="cls-2" d="M468.27,40.21h-12.74v38.95h-13.37v-38.95h-12.74v-8.17h38.86v8.17Z"/>
    </g>
  </g>
</svg>