<?xml version="1.0" encoding="UTF-8"?>
<svg id="_レイヤー_2" data-name="レイヤー 2" xmlns="http://www.w3.org/2000/svg" viewBox="0 0 641.03 109.62">
  <defs>
    <style>
      .cls-1 {
        fill: #ffbd00;
      }

      .cls-2 {
        fill: #7a5800;
      }

      .cls-3 {
        fill: #fff;
      }
    </style>
  </defs>
  <g id="_レイヤー_1-2" data-name="レイヤー 1">
    <rect class="cls-2" y="13.46" width="641.03" height="96.15" rx="12.82" ry="12.82"/>
    <rect class="cls-1" width="641.03" height="96.15" rx="12.82" ry="12.82"/>
    <g>
      <path class="cls-3" d="M157.23,57.88v-28.54h36.88v8.17h-23.51v12.2h23.51v23.15h-35.27v-8.17h21.9v-6.82h-23.51Z"/>
      <path class="cls-3" d="M238.26,32.04v30.6h-23.6v13.82h-13.37v-44.42h36.97ZM214.66,54.47h10.23v-14.27h-10.23v14.27Z"/>
      <path class="cls-3" d="M258.82,43.53h23.6v8.17h-23.6v14.81h23.6v8.17h-36.97V27.55h36.97v8.17h-23.6v7.81Z"/>
      <path class="cls-3" d="M302.97,43.53h23.6v8.17h-23.6v14.81h23.6v8.17h-36.97V27.55h36.97v8.17h-23.6v7.81Z"/>
      <path class="cls-3" d="M333.75,76.46v-44.42h25.49c7.63,0,11.49,2.6,11.49,7.72v29.08c0,5.12-3.86,7.63-11.49,7.63h-25.49ZM357.35,41.55c0-1.08-.45-1.35-1.79-1.35h-8.44v28.09h8.44c1.17,0,1.79-.45,1.79-1.26v-25.49Z"/>
      <path class="cls-3" d="M402.67,23.16h13.37v38.86h10.23V23.16h13.37v47.02h-36.97V23.16Z"/>
      <path class="cls-3" d="M483.8,32.04v30.6h-23.6v13.82h-13.37v-44.42h36.97ZM460.2,54.47h10.23v-14.27h-10.23v14.27Z"/>
    </g>
  </g>
</svg>