<?xml version="1.0" encoding="UTF-8"?>
<svg id="_レイヤー_2" data-name="レイヤー 2" xmlns="http://www.w3.org/2000/svg" viewBox="0 0 127 84.35">
  <defs>
    <style>
      .cls-1 {
        fill: #2f5ed7;
      }

      .cls-2 {
        fill: #70b2ff;
      }

      .cls-3 {
        fill: #1f6dc4;
      }

      .cls-4 {
        fill: #6da1dd;
      }

      .cls-5 {
        fill: #6085ed;
      }

      .cls-6 {
        fill: #1a546e;
      }
    </style>
  </defs>
  <g id="_レイヤー_1-2" data-name="レイヤー 1">
    <g>
      <rect class="cls-6" x="72.57" y="79.67" width="4.54" height="4.69"/>
      <rect class="cls-6" x="68.04" y="79.67" width="4.54" height="4.69"/>
      <rect class="cls-6" x="49.89" y="79.67" width="4.54" height="4.69"/>
      <rect class="cls-6" x="45.36" y="79.67" width="4.54" height="4.69"/>
      <rect class="cls-6" x="40.82" y="79.67" width="4.54" height="4.69"/>
      <rect class="cls-6" x="77.11" y="74.98" width="4.54" height="4.69"/>
      <rect class="cls-6" x="72.57" y="74.98" width="4.54" height="4.69"/>
      <rect class="cls-1" x="68.04" y="74.98" width="4.54" height="4.69"/>
      <rect class="cls-6" x="63.5" y="74.98" width="4.54" height="4.69"/>
      <rect class="cls-6" x="54.43" y="74.98" width="4.54" height="4.69"/>
      <rect class="cls-1" x="49.89" y="74.98" width="4.54" height="4.69"/>
      <rect class="cls-1" x="45.36" y="74.98" width="4.54" height="4.69"/>
      <rect class="cls-6" x="40.82" y="74.98" width="4.54" height="4.69"/>
      <rect class="cls-6" x="36.29" y="74.98" width="4.54" height="4.69"/>
      <rect class="cls-6" x="81.64" y="70.29" width="4.54" height="4.69"/>
      <rect class="cls-6" x="77.11" y="70.29" width="4.54" height="4.69"/>
      <rect class="cls-1" x="72.57" y="70.29" width="4.54" height="4.69"/>
      <rect class="cls-5" x="68.04" y="70.29" width="4.54" height="4.69"/>
      <rect class="cls-6" x="63.5" y="70.29" width="4.54" height="4.69"/>
      <rect class="cls-6" x="54.43" y="70.29" width="4.54" height="4.69"/>
      <rect class="cls-1" x="49.89" y="70.29" width="4.54" height="4.69"/>
      <rect class="cls-5" x="45.36" y="70.29" width="4.54" height="4.69"/>
      <rect class="cls-5" x="40.82" y="70.29" width="4.54" height="4.69"/>
      <rect class="cls-6" x="36.29" y="70.29" width="4.54" height="4.69"/>
      <rect class="cls-6" x="81.64" y="65.61" width="4.54" height="4.69"/>
      <rect class="cls-1" x="77.11" y="65.61" width="4.54" height="4.69"/>
      <rect class="cls-5" x="72.57" y="65.61" width="4.54" height="4.69"/>
      <rect class="cls-6" x="68.04" y="65.61" width="4.54" height="4.69"/>
      <rect class="cls-6" x="63.5" y="65.61" width="4.54" height="4.69"/>
      <rect class="cls-6" x="54.43" y="65.61" width="4.54" height="4.69"/>
      <rect class="cls-6" x="49.89" y="65.61" width="4.54" height="4.69"/>
      <rect class="cls-1" x="45.36" y="65.61" width="4.54" height="4.69"/>
      <rect class="cls-5" x="40.82" y="65.61" width="4.54" height="4.69"/>
      <rect class="cls-5" x="36.29" y="65.61" width="4.54" height="4.69"/>
      <rect class="cls-6" x="31.75" y="65.61" width="4.54" height="4.69"/>
      <rect class="cls-6" x="81.64" y="60.92" width="4.54" height="4.69"/>
      <rect class="cls-1" x="77.11" y="60.92" width="4.54" height="4.69"/>
      <rect class="cls-5" x="72.57" y="60.92" width="4.54" height="4.69"/>
      <rect class="cls-6" x="68.04" y="60.92" width="4.54" height="4.69"/>
      <rect class="cls-6" x="63.5" y="60.92" width="4.54" height="4.69"/>
      <rect class="cls-6" x="58.96" y="60.92" width="4.54" height="4.69"/>
      <rect class="cls-6" x="54.43" y="60.92" width="4.54" height="4.69"/>
      <rect class="cls-6" x="49.89" y="60.92" width="4.54" height="4.69"/>
      <rect class="cls-6" x="45.36" y="60.92" width="4.54" height="4.69"/>
      <rect class="cls-1" x="40.82" y="60.92" width="4.54" height="4.69"/>
      <rect class="cls-5" x="36.29" y="60.92" width="4.54" height="4.69"/>
      <rect class="cls-5" x="31.75" y="60.92" width="4.54" height="4.69"/>
      <rect class="cls-6" x="27.21" y="60.92" width="4.54" height="4.69"/>
      <rect class="cls-6" x="86.18" y="56.24" width="4.54" height="4.69"/>
      <rect class="cls-6" x="81.64" y="56.24" width="4.54" height="4.69"/>
      <rect class="cls-1" x="77.11" y="56.24" width="4.54" height="4.69"/>
      <rect class="cls-5" x="72.57" y="56.24" width="4.54" height="4.69"/>
      <rect class="cls-6" x="68.04" y="56.24" width="4.54" height="4.69"/>
      <rect class="cls-1" x="63.5" y="56.24" width="4.54" height="4.69"/>
      <rect class="cls-1" x="58.96" y="56.24" width="4.54" height="4.69"/>
      <rect class="cls-1" x="54.43" y="56.24" width="4.54" height="4.69"/>
      <rect class="cls-1" x="49.89" y="56.24" width="4.54" height="4.69"/>
      <rect class="cls-6" x="45.36" y="56.24" width="4.54" height="4.69"/>
      <rect class="cls-1" x="40.82" y="56.24" width="4.54" height="4.69"/>
      <rect class="cls-5" x="36.29" y="56.24" width="4.54" height="4.69"/>
      <rect class="cls-5" x="31.75" y="56.24" width="4.54" height="4.69"/>
      <rect class="cls-6" x="27.21" y="56.24" width="4.54" height="4.69"/>
      <rect class="cls-6" x="22.68" y="56.24" width="4.54" height="4.69"/>
      <rect class="cls-6" x="117.93" y="51.55" width="4.54" height="4.69"/>
      <rect class="cls-6" x="113.39" y="51.55" width="4.54" height="4.69"/>
      <rect class="cls-6" x="108.86" y="51.55" width="4.54" height="4.69"/>
      <rect class="cls-6" x="104.32" y="51.55" width="4.54" height="4.69"/>
      <rect class="cls-6" x="90.71" y="51.55" width="4.54" height="4.69"/>
      <rect class="cls-6" x="86.18" y="51.55" width="4.54" height="4.69"/>
      <rect class="cls-1" x="81.64" y="51.55" width="4.54" height="4.69"/>
      <rect class="cls-5" x="77.11" y="51.55" width="4.54" height="4.69"/>
      <rect class="cls-5" x="72.57" y="51.55" width="4.54" height="4.69"/>
      <rect class="cls-1" x="68.04" y="51.55" width="4.54" height="4.69"/>
      <rect class="cls-5" x="63.5" y="51.55" width="4.54" height="4.69"/>
      <rect class="cls-5" x="58.96" y="51.55" width="4.54" height="4.69"/>
      <rect class="cls-5" x="54.43" y="51.55" width="4.54" height="4.69"/>
      <rect class="cls-5" x="49.89" y="51.55" width="4.54" height="4.69"/>
      <rect class="cls-1" x="45.36" y="51.55" width="4.54" height="4.69"/>
      <rect class="cls-5" x="40.82" y="51.55" width="4.54" height="4.69"/>
      <rect class="cls-5" x="36.29" y="51.55" width="4.54" height="4.69"/>
      <rect class="cls-5" x="31.75" y="51.55" width="4.54" height="4.69"/>
      <rect class="cls-5" x="27.21" y="51.55" width="4.54" height="4.69"/>
      <rect class="cls-6" x="22.68" y="51.55" width="4.54" height="4.69"/>
      <rect class="cls-6" x="122.46" y="46.86" width="4.54" height="4.69"/>
      <rect class="cls-1" x="117.93" y="46.86" width="4.54" height="4.69"/>
      <rect class="cls-1" x="113.39" y="46.86" width="4.54" height="4.69"/>
      <rect class="cls-1" x="108.86" y="46.86" width="4.54" height="4.69"/>
      <rect class="cls-1" x="104.32" y="46.86" width="4.54" height="4.69"/>
      <rect class="cls-6" x="99.79" y="46.86" width="4.54" height="4.69"/>
      <rect class="cls-6" x="95.25" y="46.86" width="4.54" height="4.69"/>
      <rect class="cls-6" x="90.71" y="46.86" width="4.54" height="4.69"/>
      <rect class="cls-1" x="86.18" y="46.86" width="4.54" height="4.69"/>
      <rect class="cls-1" x="81.64" y="46.86" width="4.54" height="4.69"/>
      <rect class="cls-5" x="77.11" y="46.86" width="4.54" height="4.69"/>
      <rect class="cls-5" x="72.57" y="46.86" width="4.54" height="4.69"/>
      <rect class="cls-5" x="68.04" y="46.86" width="4.54" height="4.69"/>
      <rect class="cls-3" x="63.5" y="46.86" width="4.54" height="4.69"/>
      <rect class="cls-3" x="58.96" y="46.86" width="4.54" height="4.69"/>
      <rect class="cls-3" x="54.43" y="46.86" width="4.54" height="4.69"/>
      <rect class="cls-3" x="49.89" y="46.86" width="4.54" height="4.69"/>
      <rect class="cls-3" x="45.36" y="46.86" width="4.54" height="4.69"/>
      <rect class="cls-3" x="40.82" y="46.86" width="4.54" height="4.69"/>
      <rect class="cls-5" x="36.29" y="46.86" width="4.54" height="4.69"/>
      <rect class="cls-5" x="31.75" y="46.86" width="4.54" height="4.69"/>
      <rect class="cls-5" x="27.21" y="46.86" width="4.54" height="4.69"/>
      <rect class="cls-6" x="22.68" y="46.86" width="4.54" height="4.69"/>
      <rect class="cls-6" x="122.46" y="42.18" width="4.54" height="4.69"/>
      <rect class="cls-5" x="117.93" y="42.18" width="4.54" height="4.69"/>
      <rect class="cls-6" x="113.39" y="42.18" width="4.54" height="4.69"/>
      <rect class="cls-5" x="108.86" y="42.18" width="4.54" height="4.69"/>
      <rect class="cls-5" x="104.32" y="42.18" width="4.54" height="4.69"/>
      <rect class="cls-1" x="99.79" y="42.18" width="4.54" height="4.69"/>
      <rect class="cls-1" x="95.25" y="42.18" width="4.54" height="4.69"/>
      <rect class="cls-6" x="90.71" y="42.18" width="4.54" height="4.69"/>
      <rect class="cls-1" x="86.18" y="42.18" width="4.54" height="4.69"/>
      <rect class="cls-1" x="81.64" y="42.18" width="4.54" height="4.69"/>
      <rect class="cls-5" x="77.11" y="42.18" width="4.54" height="4.69"/>
      <rect class="cls-5" x="72.57" y="42.18" width="4.54" height="4.69"/>
      <rect class="cls-3" x="68.04" y="42.18" width="4.54" height="4.69"/>
      <rect class="cls-4" x="63.5" y="42.18" width="4.54" height="4.69"/>
      <rect class="cls-4" x="58.96" y="42.18" width="4.54" height="4.69"/>
      <rect class="cls-4" x="54.43" y="42.18" width="4.54" height="4.69"/>
      <rect class="cls-4" x="49.89" y="42.18" width="4.54" height="4.69"/>
      <rect class="cls-4" x="45.36" y="42.18" width="4.54" height="4.69"/>
      <rect class="cls-4" x="40.82" y="42.18" width="4.54" height="4.69"/>
      <rect class="cls-3" x="36.29" y="42.18" width="4.54" height="4.69"/>
      <rect class="cls-5" x="31.75" y="42.18" width="4.54" height="4.69"/>
      <rect class="cls-5" x="27.21" y="42.18" width="4.54" height="4.69"/>
      <rect class="cls-6" x="22.68" y="42.18" width="4.54" height="4.69"/>
      <rect class="cls-6" x="18.14" y="42.18" width="4.54" height="4.69"/>
      <rect class="cls-6" x="13.61" y="42.18" width="4.54" height="4.69"/>
      <rect class="cls-6" x="9.07" y="42.18" width="4.54" height="4.69"/>
      <rect class="cls-6" x="122.46" y="37.49" width="4.54" height="4.69"/>
      <rect class="cls-5" x="117.93" y="37.49" width="4.54" height="4.69"/>
      <rect class="cls-5" x="113.39" y="37.49" width="4.54" height="4.69"/>
      <rect class="cls-5" x="108.86" y="37.49" width="4.54" height="4.69"/>
      <rect class="cls-5" x="104.32" y="37.49" width="4.54" height="4.69"/>
      <rect class="cls-5" x="99.79" y="37.49" width="4.54" height="4.69"/>
      <rect class="cls-5" x="95.25" y="37.49" width="4.54" height="4.69"/>
      <rect class="cls-5" x="90.71" y="37.49" width="4.54" height="4.69"/>
      <rect class="cls-1" x="86.18" y="37.49" width="4.54" height="4.69"/>
      <rect class="cls-5" x="81.64" y="37.49" width="4.54" height="4.69"/>
      <rect class="cls-5" x="77.11" y="37.49" width="4.54" height="4.69"/>
      <rect class="cls-5" x="72.57" y="37.49" width="4.54" height="4.69"/>
      <rect class="cls-3" x="68.04" y="37.49" width="4.54" height="4.69"/>
      <rect class="cls-4" x="63.5" y="37.49" width="4.54" height="4.69"/>
      <rect class="cls-2" x="58.96" y="37.49" width="4.54" height="4.69"/>
      <rect class="cls-2" x="54.43" y="37.49" width="4.54" height="4.69"/>
      <rect class="cls-2" x="49.89" y="37.49" width="4.54" height="4.69"/>
      <rect class="cls-2" x="45.36" y="37.49" width="4.54" height="4.69"/>
      <rect class="cls-2" x="40.82" y="37.49" width="4.54" height="4.69"/>
      <rect class="cls-3" x="36.29" y="37.49" width="4.54" height="4.69"/>
      <rect class="cls-5" x="31.75" y="37.49" width="4.54" height="4.69"/>
      <rect class="cls-5" x="27.21" y="37.49" width="4.54" height="4.69"/>
      <rect class="cls-6" x="22.68" y="37.49" width="4.54" height="4.69"/>
      <rect class="cls-6" x="18.14" y="37.49" width="4.54" height="4.69"/>
      <rect class="cls-6" x="13.61" y="37.49" width="4.54" height="4.69"/>
      <rect class="cls-6" x="9.07" y="37.49" width="4.54" height="4.69"/>
      <rect class="cls-6" x="4.54" y="37.49" width="4.54" height="4.69"/>
      <rect class="cls-6" x="117.93" y="32.8" width="4.54" height="4.69"/>
      <rect class="cls-5" x="113.39" y="32.8" width="4.54" height="4.69"/>
      <rect class="cls-5" x="108.86" y="32.8" width="4.54" height="4.69"/>
      <rect class="cls-6" x="104.32" y="32.8" width="4.54" height="4.69"/>
      <rect class="cls-5" x="99.79" y="32.8" width="4.54" height="4.69"/>
      <rect class="cls-5" x="95.25" y="32.8" width="4.54" height="4.69"/>
      <rect class="cls-5" x="90.71" y="32.8" width="4.54" height="4.69"/>
      <rect class="cls-5" x="86.18" y="32.8" width="4.54" height="4.69"/>
      <rect class="cls-5" x="81.64" y="32.8" width="4.54" height="4.69"/>
      <rect class="cls-5" x="77.11" y="32.8" width="4.54" height="4.69"/>
      <rect class="cls-3" x="72.57" y="32.8" width="4.54" height="4.69"/>
      <rect class="cls-4" x="68.04" y="32.8" width="4.54" height="4.69"/>
      <rect class="cls-2" x="63.5" y="32.8" width="4.54" height="4.69"/>
      <rect class="cls-2" x="58.96" y="32.8" width="4.54" height="4.69"/>
      <rect class="cls-2" x="54.43" y="32.8" width="4.54" height="4.69"/>
      <rect class="cls-2" x="49.89" y="32.8" width="4.54" height="4.69"/>
      <rect class="cls-2" x="45.36" y="32.8" width="4.54" height="4.69"/>
      <rect class="cls-2" x="40.82" y="32.8" width="4.54" height="4.69"/>
      <rect class="cls-3" x="36.29" y="32.8" width="4.54" height="4.69"/>
      <rect class="cls-5" x="31.75" y="32.8" width="4.54" height="4.69"/>
      <rect class="cls-6" x="27.21" y="32.8" width="4.54" height="4.69"/>
      <rect class="cls-6" x="13.61" y="32.8" width="4.54" height="4.69"/>
      <rect class="cls-6" x="9.07" y="32.8" width="4.54" height="4.69"/>
      <rect class="cls-6" x="4.54" y="32.8" width="4.54" height="4.69"/>
      <rect class="cls-6" y="32.8" width="4.54" height="4.69"/>
      <rect class="cls-6" x="117.93" y="28.12" width="4.54" height="4.69"/>
      <rect class="cls-1" x="113.39" y="28.12" width="4.54" height="4.69"/>
      <rect class="cls-5" x="108.86" y="28.12" width="4.54" height="4.69"/>
      <rect class="cls-6" x="104.32" y="28.12" width="4.54" height="4.69"/>
      <rect class="cls-5" x="99.79" y="28.12" width="4.54" height="4.69"/>
      <rect class="cls-5" x="95.25" y="28.12" width="4.54" height="4.69"/>
      <rect class="cls-5" x="90.71" y="28.12" width="4.54" height="4.69"/>
      <rect class="cls-5" x="86.18" y="28.12" width="4.54" height="4.69"/>
      <rect class="cls-5" x="81.64" y="28.12" width="4.54" height="4.69"/>
      <rect class="cls-5" x="77.11" y="28.12" width="4.54" height="4.69"/>
      <rect class="cls-3" x="72.57" y="28.12" width="4.54" height="4.69"/>
      <rect class="cls-4" x="68.04" y="28.12" width="4.54" height="4.69"/>
      <rect class="cls-2" x="63.5" y="28.12" width="4.54" height="4.69"/>
      <rect class="cls-2" x="58.96" y="28.12" width="4.54" height="4.69"/>
      <rect class="cls-2" x="54.43" y="28.12" width="4.54" height="4.69"/>
      <rect class="cls-2" x="49.89" y="28.12" width="4.54" height="4.69"/>
      <rect class="cls-2" x="45.36" y="28.12" width="4.54" height="4.69"/>
      <rect class="cls-2" x="40.82" y="28.12" width="4.54" height="4.69"/>
      <rect class="cls-3" x="36.29" y="28.12" width="4.54" height="4.69"/>
      <rect class="cls-6" x="31.75" y="28.12" width="4.54" height="4.69"/>
      <rect class="cls-6" x="9.07" y="28.12" width="4.54" height="4.69"/>
      <rect class="cls-6" x="4.54" y="28.12" width="4.54" height="4.69"/>
      <rect class="cls-6" y="28.12" width="4.54" height="4.69"/>
      <rect class="cls-6" x="113.39" y="23.43" width="4.54" height="4.69"/>
      <rect class="cls-5" x="108.86" y="23.43" width="4.54" height="4.69"/>
      <rect class="cls-5" x="104.32" y="23.43" width="4.54" height="4.69"/>
      <rect class="cls-5" x="99.79" y="23.43" width="4.54" height="4.69"/>
      <rect class="cls-5" x="95.25" y="23.43" width="4.54" height="4.69"/>
      <rect class="cls-5" x="90.71" y="23.43" width="4.54" height="4.69"/>
      <rect class="cls-5" x="86.18" y="23.43" width="4.54" height="4.69"/>
      <rect class="cls-5" x="81.64" y="23.43" width="4.54" height="4.69"/>
      <rect class="cls-6" x="77.11" y="23.43" width="4.54" height="4.69"/>
      <rect class="cls-6" x="72.57" y="23.43" width="4.54" height="4.69"/>
      <rect class="cls-3" x="68.04" y="23.43" width="4.54" height="4.69"/>
      <rect class="cls-3" x="63.5" y="23.43" width="4.54" height="4.69"/>
      <rect class="cls-3" x="58.96" y="23.43" width="4.54" height="4.69"/>
      <rect class="cls-3" x="54.43" y="23.43" width="4.54" height="4.69"/>
      <rect class="cls-3" x="49.89" y="23.43" width="4.54" height="4.69"/>
      <rect class="cls-3" x="45.36" y="23.43" width="4.54" height="4.69"/>
      <rect class="cls-3" x="40.82" y="23.43" width="4.54" height="4.69"/>
      <rect class="cls-3" x="36.29" y="23.43" width="4.54" height="4.69"/>
      <rect class="cls-6" x="113.39" y="18.75" width="4.54" height="4.69"/>
      <rect class="cls-1" x="108.86" y="18.75" width="4.54" height="4.69"/>
      <rect class="cls-5" x="104.32" y="18.75" width="4.54" height="4.69"/>
      <rect class="cls-5" x="99.79" y="18.75" width="4.54" height="4.69"/>
      <rect class="cls-5" x="95.25" y="18.75" width="4.54" height="4.69"/>
      <rect class="cls-5" x="90.71" y="18.75" width="4.54" height="4.69"/>
      <rect class="cls-5" x="86.18" y="18.75" width="4.54" height="4.69"/>
      <rect class="cls-6" x="81.64" y="18.75" width="4.54" height="4.69"/>
      <rect class="cls-6" x="77.11" y="18.75" width="4.54" height="4.69"/>
      <rect class="cls-6" x="72.57" y="18.75" width="4.54" height="4.69"/>
      <rect class="cls-6" x="68.04" y="18.75" width="4.54" height="4.69"/>
      <rect class="cls-6" x="63.5" y="18.75" width="4.54" height="4.69"/>
      <rect class="cls-6" x="108.86" y="14.06" width="4.54" height="4.69"/>
      <rect class="cls-1" x="104.32" y="14.06" width="4.54" height="4.69"/>
      <rect class="cls-5" x="99.79" y="14.06" width="4.54" height="4.69"/>
      <rect class="cls-5" x="95.25" y="14.06" width="4.54" height="4.69"/>
      <rect class="cls-6" x="90.71" y="14.06" width="4.54" height="4.69"/>
      <rect class="cls-6" x="86.18" y="14.06" width="4.54" height="4.69"/>
      <rect class="cls-6" x="81.64" y="14.06" width="4.54" height="4.69"/>
      <rect class="cls-6" x="77.11" y="14.06" width="4.54" height="4.69"/>
      <rect class="cls-6" x="72.57" y="14.06" width="4.54" height="4.69"/>
      <rect class="cls-6" x="68.04" y="14.06" width="4.54" height="4.69"/>
      <rect class="cls-6" x="104.32" y="9.37" width="4.54" height="4.69"/>
      <rect class="cls-6" x="99.79" y="9.37" width="4.54" height="4.69"/>
      <rect class="cls-5" x="95.25" y="9.37" width="4.54" height="4.69"/>
      <rect class="cls-6" x="90.71" y="9.37" width="4.54" height="4.69"/>
      <rect class="cls-6" x="86.18" y="9.37" width="4.54" height="4.69"/>
      <rect class="cls-6" x="81.64" y="9.37" width="4.54" height="4.69"/>
      <rect class="cls-6" x="77.11" y="9.37" width="4.54" height="4.69"/>
      <rect class="cls-6" x="72.57" y="9.37" width="4.54" height="4.69"/>
      <rect class="cls-6" x="68.04" y="9.37" width="4.54" height="4.69"/>
      <rect class="cls-6" x="63.5" y="9.37" width="4.54" height="4.69"/>
      <rect class="cls-6" x="99.79" y="4.69" width="4.54" height="4.69"/>
      <rect class="cls-6" x="95.25" y="4.69" width="4.54" height="4.69"/>
      <rect class="cls-6" x="90.71" y="4.69" width="4.54" height="4.69"/>
      <rect class="cls-6" x="86.18" y="4.69" width="4.54" height="4.69"/>
      <rect class="cls-6" x="81.64" y="4.69" width="4.54" height="4.69"/>
      <rect class="cls-6" x="77.11" y="4.69" width="4.54" height="4.69"/>
      <rect class="cls-6" x="95.25" width="4.54" height="4.69"/>
      <rect class="cls-6" x="81.64" width="4.54" height="4.69"/>
      <rect class="cls-6" x="77.11" width="4.54" height="4.69"/>
      <rect class="cls-6" x="72.57" width="4.54" height="4.69"/>
    </g>
  </g>
</svg>