<?xml version="1.0" encoding="UTF-8"?>
<svg id="_レイヤー_2" data-name="レイヤー 2" xmlns="http://www.w3.org/2000/svg" viewBox="0 0 127 89.31">
  <defs>
    <style>
      .cls-1 {
        fill: #514f4f;
      }

      .cls-2 {
        fill: #7a7a7a;
      }

      .cls-3 {
        fill: #606060;
      }

      .cls-4 {
        fill: #757575;
      }

      .cls-5 {
        fill: #3d3d3d;
      }

      .cls-6 {
        fill: #353535;
      }
    </style>
  </defs>
  <g id="_レイヤー_1-2" data-name="レイヤー 1">
    <g>
      <rect class="cls-6" x="104.32" y="84.61" width="4.54" height="4.7"/>
      <rect class="cls-6" x="99.79" y="84.61" width="4.54" height="4.7"/>
      <rect class="cls-6" x="95.25" y="84.61" width="4.54" height="4.7"/>
      <rect class="cls-6" x="31.75" y="84.61" width="4.54" height="4.7"/>
      <rect class="cls-6" x="27.21" y="84.61" width="4.54" height="4.7"/>
      <rect class="cls-6" x="13.61" y="84.61" width="4.54" height="4.7"/>
      <rect class="cls-6" x="9.07" y="84.61" width="4.54" height="4.7"/>
      <rect class="cls-6" x="104.32" y="79.91" width="4.54" height="4.7"/>
      <rect class="cls-1" x="99.79" y="79.91" width="4.54" height="4.7"/>
      <rect class="cls-6" x="95.25" y="79.91" width="4.54" height="4.7"/>
      <rect class="cls-6" x="86.18" y="79.91" width="4.54" height="4.7"/>
      <rect class="cls-6" x="81.64" y="79.91" width="4.54" height="4.7"/>
      <rect class="cls-6" x="31.75" y="79.91" width="4.54" height="4.7"/>
      <rect class="cls-6" x="27.21" y="79.91" width="4.54" height="4.7"/>
      <rect class="cls-6" x="18.14" y="79.91" width="4.54" height="4.7"/>
      <rect class="cls-1" x="13.61" y="79.91" width="4.54" height="4.7"/>
      <rect class="cls-6" x="9.07" y="79.91" width="4.54" height="4.7"/>
      <rect class="cls-6" x="104.32" y="75.21" width="4.54" height="4.7"/>
      <rect class="cls-3" x="99.79" y="75.21" width="4.54" height="4.7"/>
      <rect class="cls-1" x="95.25" y="75.21" width="4.54" height="4.7"/>
      <rect class="cls-6" x="90.71" y="75.21" width="4.54" height="4.7"/>
      <rect class="cls-6" x="86.18" y="75.21" width="4.54" height="4.7"/>
      <rect class="cls-6" x="81.64" y="75.21" width="4.54" height="4.7"/>
      <rect class="cls-6" x="36.29" y="75.21" width="4.54" height="4.7"/>
      <rect class="cls-6" x="31.75" y="75.21" width="4.54" height="4.7"/>
      <rect class="cls-6" x="27.21" y="75.21" width="4.54" height="4.7"/>
      <rect class="cls-6" x="22.68" y="75.21" width="4.54" height="4.7"/>
      <rect class="cls-1" x="18.14" y="75.21" width="4.54" height="4.7"/>
      <rect class="cls-3" x="13.61" y="75.21" width="4.54" height="4.7"/>
      <rect class="cls-6" x="9.07" y="75.21" width="4.54" height="4.7"/>
      <rect class="cls-6" x="99.79" y="70.51" width="4.54" height="4.7"/>
      <rect class="cls-3" x="95.25" y="70.51" width="4.54" height="4.7"/>
      <rect class="cls-1" x="90.71" y="70.51" width="4.54" height="4.7"/>
      <rect class="cls-6" x="86.18" y="70.51" width="4.54" height="4.7"/>
      <rect class="cls-6" x="40.82" y="70.51" width="4.54" height="4.7"/>
      <rect class="cls-1" x="36.29" y="70.51" width="4.54" height="4.7"/>
      <rect class="cls-6" x="31.75" y="70.51" width="4.54" height="4.7"/>
      <rect class="cls-6" x="27.21" y="70.51" width="4.54" height="4.7"/>
      <rect class="cls-1" x="22.68" y="70.51" width="4.54" height="4.7"/>
      <rect class="cls-1" x="18.14" y="70.51" width="4.54" height="4.7"/>
      <rect class="cls-6" x="13.61" y="70.51" width="4.54" height="4.7"/>
      <rect class="cls-6" x="99.79" y="65.81" width="4.54" height="4.7"/>
      <rect class="cls-3" x="95.25" y="65.81" width="4.54" height="4.7"/>
      <rect class="cls-1" x="90.71" y="65.81" width="4.54" height="4.7"/>
      <rect class="cls-6" x="86.18" y="65.81" width="4.54" height="4.7"/>
      <rect class="cls-6" x="81.64" y="65.81" width="4.54" height="4.7"/>
      <rect class="cls-6" x="68.04" y="65.81" width="4.54" height="4.7"/>
      <rect class="cls-6" x="63.5" y="65.81" width="4.54" height="4.7"/>
      <rect class="cls-6" x="58.96" y="65.81" width="4.54" height="4.7"/>
      <rect class="cls-6" x="54.43" y="65.81" width="4.54" height="4.7"/>
      <rect class="cls-6" x="49.89" y="65.81" width="4.54" height="4.7"/>
      <rect class="cls-6" x="45.36" y="65.81" width="4.54" height="4.7"/>
      <rect class="cls-1" x="40.82" y="65.81" width="4.54" height="4.7"/>
      <rect class="cls-6" x="36.29" y="65.81" width="4.54" height="4.7"/>
      <rect class="cls-6" x="31.75" y="65.81" width="4.54" height="4.7"/>
      <rect class="cls-1" x="27.21" y="65.81" width="4.54" height="4.7"/>
      <rect class="cls-3" x="22.68" y="65.81" width="4.54" height="4.7"/>
      <rect class="cls-3" x="18.14" y="65.81" width="4.54" height="4.7"/>
      <rect class="cls-6" x="13.61" y="65.81" width="4.54" height="4.7"/>
      <rect class="cls-6" x="95.25" y="61.11" width="4.54" height="4.7"/>
      <rect class="cls-3" x="90.71" y="61.11" width="4.54" height="4.7"/>
      <rect class="cls-1" x="86.18" y="61.11" width="4.54" height="4.7"/>
      <rect class="cls-1" x="81.64" y="61.11" width="4.54" height="4.7"/>
      <rect class="cls-6" x="77.11" y="61.11" width="4.54" height="4.7"/>
      <rect class="cls-6" x="72.57" y="61.11" width="4.54" height="4.7"/>
      <rect class="cls-1" x="68.04" y="61.11" width="4.54" height="4.7"/>
      <rect class="cls-1" x="63.5" y="61.11" width="4.54" height="4.7"/>
      <rect class="cls-1" x="58.96" y="61.11" width="4.54" height="4.7"/>
      <rect class="cls-1" x="54.43" y="61.11" width="4.54" height="4.7"/>
      <rect class="cls-6" x="49.89" y="61.11" width="4.54" height="4.7"/>
      <rect class="cls-6" x="45.36" y="61.11" width="4.54" height="4.7"/>
      <rect class="cls-6" x="40.82" y="61.11" width="4.54" height="4.7"/>
      <rect class="cls-6" x="36.29" y="61.11" width="4.54" height="4.7"/>
      <rect class="cls-1" x="31.75" y="61.11" width="4.54" height="4.7"/>
      <rect class="cls-3" x="27.21" y="61.11" width="4.54" height="4.7"/>
      <rect class="cls-3" x="22.68" y="61.11" width="4.54" height="4.7"/>
      <rect class="cls-6" x="18.14" y="61.11" width="4.54" height="4.7"/>
      <rect class="cls-6" x="95.25" y="56.4" width="4.54" height="4.7"/>
      <rect class="cls-6" x="90.71" y="56.4" width="4.54" height="4.7"/>
      <rect class="cls-3" x="86.18" y="56.4" width="4.54" height="4.7"/>
      <rect class="cls-3" x="81.64" y="56.4" width="4.54" height="4.7"/>
      <rect class="cls-1" x="77.11" y="56.4" width="4.54" height="4.7"/>
      <rect class="cls-1" x="72.57" y="56.4" width="4.54" height="4.7"/>
      <rect class="cls-3" x="68.04" y="56.4" width="4.54" height="4.7"/>
      <rect class="cls-3" x="63.5" y="56.4" width="4.54" height="4.7"/>
      <rect class="cls-3" x="58.96" y="56.4" width="4.54" height="4.7"/>
      <rect class="cls-3" x="54.43" y="56.4" width="4.54" height="4.7"/>
      <rect class="cls-1" x="49.89" y="56.4" width="4.54" height="4.7"/>
      <rect class="cls-1" x="45.36" y="56.4" width="4.54" height="4.7"/>
      <rect class="cls-6" x="40.82" y="56.4" width="4.54" height="4.7"/>
      <rect class="cls-1" x="36.29" y="56.4" width="4.54" height="4.7"/>
      <rect class="cls-3" x="31.75" y="56.4" width="4.54" height="4.7"/>
      <rect class="cls-3" x="27.21" y="56.4" width="4.54" height="4.7"/>
      <rect class="cls-3" x="22.68" y="56.4" width="4.54" height="4.7"/>
      <rect class="cls-6" x="18.14" y="56.4" width="4.54" height="4.7"/>
      <rect class="cls-6" x="113.39" y="51.7" width="4.54" height="4.7"/>
      <rect class="cls-6" x="108.86" y="51.7" width="4.54" height="4.7"/>
      <rect class="cls-6" x="90.71" y="51.7" width="4.54" height="4.7"/>
      <rect class="cls-6" x="86.18" y="51.7" width="4.54" height="4.7"/>
      <rect class="cls-3" x="81.64" y="51.7" width="4.54" height="4.7"/>
      <rect class="cls-3" x="77.11" y="51.7" width="4.54" height="4.7"/>
      <rect class="cls-3" x="72.57" y="51.7" width="4.54" height="4.7"/>
      <rect class="cls-3" x="68.04" y="51.7" width="4.54" height="4.7"/>
      <rect class="cls-5" x="63.5" y="51.7" width="4.54" height="4.7"/>
      <rect class="cls-5" x="58.96" y="51.7" width="4.54" height="4.7"/>
      <rect class="cls-5" x="54.43" y="51.7" width="4.54" height="4.7"/>
      <rect class="cls-5" x="49.89" y="51.7" width="4.54" height="4.7"/>
      <rect class="cls-5" x="45.36" y="51.7" width="4.54" height="4.7"/>
      <rect class="cls-5" x="40.82" y="51.7" width="4.54" height="4.7"/>
      <rect class="cls-3" x="36.29" y="51.7" width="4.54" height="4.7"/>
      <rect class="cls-3" x="31.75" y="51.7" width="4.54" height="4.7"/>
      <rect class="cls-3" x="27.21" y="51.7" width="4.54" height="4.7"/>
      <rect class="cls-3" x="22.68" y="51.7" width="4.54" height="4.7"/>
      <rect class="cls-6" x="18.14" y="51.7" width="4.54" height="4.7"/>
      <rect class="cls-6" x="9.07" y="51.7" width="4.54" height="4.7"/>
      <rect class="cls-6" x="4.54" y="51.7" width="4.54" height="4.7"/>
      <rect class="cls-6" x="117.93" y="47" width="4.54" height="4.7"/>
      <rect class="cls-1" x="113.39" y="47" width="4.54" height="4.7"/>
      <rect class="cls-1" x="108.86" y="47" width="4.54" height="4.7"/>
      <rect class="cls-6" x="104.32" y="47" width="4.54" height="4.7"/>
      <rect class="cls-6" x="99.79" y="47" width="4.54" height="4.7"/>
      <rect class="cls-6" x="95.25" y="47" width="4.54" height="4.7"/>
      <rect class="cls-6" x="90.71" y="47" width="4.54" height="4.7"/>
      <rect class="cls-6" x="86.18" y="47" width="4.54" height="4.7"/>
      <rect class="cls-3" x="81.64" y="47" width="4.54" height="4.7"/>
      <rect class="cls-3" x="77.11" y="47" width="4.54" height="4.7"/>
      <rect class="cls-3" x="72.57" y="47" width="4.54" height="4.7"/>
      <rect class="cls-5" x="68.04" y="47" width="4.54" height="4.7"/>
      <rect class="cls-2" x="63.5" y="47" width="4.54" height="4.7"/>
      <rect class="cls-2" x="58.96" y="47" width="4.54" height="4.7"/>
      <rect class="cls-2" x="54.43" y="47" width="4.54" height="4.7"/>
      <rect class="cls-2" x="49.89" y="47" width="4.54" height="4.7"/>
      <rect class="cls-2" x="45.36" y="47" width="4.54" height="4.7"/>
      <rect class="cls-2" x="40.82" y="47" width="4.54" height="4.7"/>
      <rect class="cls-5" x="36.29" y="47" width="4.54" height="4.7"/>
      <rect class="cls-3" x="31.75" y="47" width="4.54" height="4.7"/>
      <rect class="cls-3" x="27.21" y="47" width="4.54" height="4.7"/>
      <rect class="cls-3" x="22.68" y="47" width="4.54" height="4.7"/>
      <rect class="cls-6" x="18.14" y="47" width="4.54" height="4.7"/>
      <rect class="cls-6" x="13.61" y="47" width="4.54" height="4.7"/>
      <rect class="cls-6" x="9.07" y="47" width="4.54" height="4.7"/>
      <rect class="cls-6" x="4.54" y="47" width="4.54" height="4.7"/>
      <rect class="cls-6" y="47" width="4.54" height="4.7"/>
      <rect class="cls-6" x="122.46" y="42.3" width="4.54" height="4.7"/>
      <rect class="cls-1" x="117.93" y="42.3" width="4.54" height="4.7"/>
      <rect class="cls-3" x="113.39" y="42.3" width="4.54" height="4.7"/>
      <rect class="cls-3" x="108.86" y="42.3" width="4.54" height="4.7"/>
      <rect class="cls-1" x="104.32" y="42.3" width="4.54" height="4.7"/>
      <rect class="cls-1" x="99.79" y="42.3" width="4.54" height="4.7"/>
      <rect class="cls-1" x="95.25" y="42.3" width="4.54" height="4.7"/>
      <rect class="cls-1" x="90.71" y="42.3" width="4.54" height="4.7"/>
      <rect class="cls-6" x="86.18" y="42.3" width="4.54" height="4.7"/>
      <rect class="cls-3" x="81.64" y="42.3" width="4.54" height="4.7"/>
      <rect class="cls-3" x="77.11" y="42.3" width="4.54" height="4.7"/>
      <rect class="cls-3" x="72.57" y="42.3" width="4.54" height="4.7"/>
      <rect class="cls-5" x="68.04" y="42.3" width="4.54" height="4.7"/>
      <rect class="cls-2" x="63.5" y="42.3" width="4.54" height="4.7"/>
      <rect class="cls-2" x="58.96" y="42.3" width="4.54" height="4.7"/>
      <rect class="cls-4" x="54.43" y="42.3" width="4.54" height="4.7"/>
      <rect class="cls-4" x="49.89" y="42.3" width="4.54" height="4.7"/>
      <rect class="cls-4" x="45.36" y="42.3" width="4.54" height="4.7"/>
      <rect class="cls-4" x="40.82" y="42.3" width="4.54" height="4.7"/>
      <rect class="cls-4" x="36.29" y="42.3" width="4.54" height="4.7"/>
      <rect class="cls-5" x="31.75" y="42.3" width="4.54" height="4.7"/>
      <rect class="cls-3" x="27.21" y="42.3" width="4.54" height="4.7"/>
      <rect class="cls-3" x="22.68" y="42.3" width="4.54" height="4.7"/>
      <rect class="cls-6" x="18.14" y="42.3" width="4.54" height="4.7"/>
      <rect class="cls-6" x="13.61" y="42.3" width="4.54" height="4.7"/>
      <rect class="cls-6" x="9.07" y="42.3" width="4.54" height="4.7"/>
      <rect class="cls-6" x="4.54" y="42.3" width="4.54" height="4.7"/>
      <rect class="cls-6" y="42.3" width="4.54" height="4.7"/>
      <rect class="cls-6" x="122.46" y="37.6" width="4.54" height="4.7"/>
      <rect class="cls-3" x="117.93" y="37.6" width="4.54" height="4.7"/>
      <rect class="cls-6" x="113.39" y="37.6" width="4.54" height="4.7"/>
      <rect class="cls-3" x="108.86" y="37.6" width="4.54" height="4.7"/>
      <rect class="cls-3" x="104.32" y="37.6" width="4.54" height="4.7"/>
      <rect class="cls-3" x="99.79" y="37.6" width="4.54" height="4.7"/>
      <rect class="cls-3" x="95.25" y="37.6" width="4.54" height="4.7"/>
      <rect class="cls-1" x="90.71" y="37.6" width="4.54" height="4.7"/>
      <rect class="cls-1" x="86.18" y="37.6" width="4.54" height="4.7"/>
      <rect class="cls-3" x="81.64" y="37.6" width="4.54" height="4.7"/>
      <rect class="cls-3" x="77.11" y="37.6" width="4.54" height="4.7"/>
      <rect class="cls-3" x="72.57" y="37.6" width="4.54" height="4.7"/>
      <rect class="cls-5" x="68.04" y="37.6" width="4.54" height="4.7"/>
      <rect class="cls-2" x="63.5" y="37.6" width="4.54" height="4.7"/>
      <rect class="cls-4" x="58.96" y="37.6" width="4.54" height="4.7"/>
      <rect class="cls-4" x="54.43" y="37.6" width="4.54" height="4.7"/>
      <rect class="cls-4" x="49.89" y="37.6" width="4.54" height="4.7"/>
      <rect class="cls-4" x="45.36" y="37.6" width="4.54" height="4.7"/>
      <rect class="cls-4" x="40.82" y="37.6" width="4.54" height="4.7"/>
      <rect class="cls-4" x="36.29" y="37.6" width="4.54" height="4.7"/>
      <rect class="cls-5" x="31.75" y="37.6" width="4.54" height="4.7"/>
      <rect class="cls-3" x="27.21" y="37.6" width="4.54" height="4.7"/>
      <rect class="cls-6" x="22.68" y="37.6" width="4.54" height="4.7"/>
      <rect class="cls-6" x="18.14" y="37.6" width="4.54" height="4.7"/>
      <rect class="cls-6" x="13.61" y="37.6" width="4.54" height="4.7"/>
      <rect class="cls-6" x="122.46" y="32.9" width="4.54" height="4.7"/>
      <rect class="cls-3" x="117.93" y="32.9" width="4.54" height="4.7"/>
      <rect class="cls-3" x="113.39" y="32.9" width="4.54" height="4.7"/>
      <rect class="cls-3" x="108.86" y="32.9" width="4.54" height="4.7"/>
      <rect class="cls-3" x="104.32" y="32.9" width="4.54" height="4.7"/>
      <rect class="cls-3" x="99.79" y="32.9" width="4.54" height="4.7"/>
      <rect class="cls-3" x="95.25" y="32.9" width="4.54" height="4.7"/>
      <rect class="cls-3" x="90.71" y="32.9" width="4.54" height="4.7"/>
      <rect class="cls-3" x="86.18" y="32.9" width="4.54" height="4.7"/>
      <rect class="cls-3" x="81.64" y="32.9" width="4.54" height="4.7"/>
      <rect class="cls-3" x="77.11" y="32.9" width="4.54" height="4.7"/>
      <rect class="cls-3" x="72.57" y="32.9" width="4.54" height="4.7"/>
      <rect class="cls-5" x="68.04" y="32.9" width="4.54" height="4.7"/>
      <rect class="cls-2" x="63.5" y="32.9" width="4.54" height="4.7"/>
      <rect class="cls-4" x="58.96" y="32.9" width="4.54" height="4.7"/>
      <rect class="cls-4" x="54.43" y="32.9" width="4.54" height="4.7"/>
      <rect class="cls-4" x="49.89" y="32.9" width="4.54" height="4.7"/>
      <rect class="cls-4" x="45.36" y="32.9" width="4.54" height="4.7"/>
      <rect class="cls-4" x="40.82" y="32.9" width="4.54" height="4.7"/>
      <rect class="cls-5" x="36.29" y="32.9" width="4.54" height="4.7"/>
      <rect class="cls-3" x="31.75" y="32.9" width="4.54" height="4.7"/>
      <rect class="cls-6" x="27.21" y="32.9" width="4.54" height="4.7"/>
      <rect class="cls-6" x="22.68" y="32.9" width="4.54" height="4.7"/>
      <rect class="cls-6" x="117.93" y="28.2" width="4.54" height="4.7"/>
      <rect class="cls-3" x="113.39" y="28.2" width="4.54" height="4.7"/>
      <rect class="cls-3" x="108.86" y="28.2" width="4.54" height="4.7"/>
      <rect class="cls-3" x="104.32" y="28.2" width="4.54" height="4.7"/>
      <rect class="cls-6" x="99.79" y="28.2" width="4.54" height="4.7"/>
      <rect class="cls-3" x="95.25" y="28.2" width="4.54" height="4.7"/>
      <rect class="cls-3" x="90.71" y="28.2" width="4.54" height="4.7"/>
      <rect class="cls-3" x="86.18" y="28.2" width="4.54" height="4.7"/>
      <rect class="cls-3" x="81.64" y="28.2" width="4.54" height="4.7"/>
      <rect class="cls-3" x="77.11" y="28.2" width="4.54" height="4.7"/>
      <rect class="cls-3" x="72.57" y="28.2" width="4.54" height="4.7"/>
      <rect class="cls-5" x="68.04" y="28.2" width="4.54" height="4.7"/>
      <rect class="cls-5" x="63.5" y="28.2" width="4.54" height="4.7"/>
      <rect class="cls-5" x="58.96" y="28.2" width="4.54" height="4.7"/>
      <rect class="cls-5" x="54.43" y="28.2" width="4.54" height="4.7"/>
      <rect class="cls-5" x="49.89" y="28.2" width="4.54" height="4.7"/>
      <rect class="cls-5" x="45.36" y="28.2" width="4.54" height="4.7"/>
      <rect class="cls-5" x="40.82" y="28.2" width="4.54" height="4.7"/>
      <rect class="cls-5" x="36.29" y="28.2" width="4.54" height="4.7"/>
      <rect class="cls-6" x="31.75" y="28.2" width="4.54" height="4.7"/>
      <rect class="cls-6" x="113.39" y="23.5" width="4.54" height="4.7"/>
      <rect class="cls-3" x="108.86" y="23.5" width="4.54" height="4.7"/>
      <rect class="cls-3" x="104.32" y="23.5" width="4.54" height="4.7"/>
      <rect class="cls-6" x="99.79" y="23.5" width="4.54" height="4.7"/>
      <rect class="cls-3" x="95.25" y="23.5" width="4.54" height="4.7"/>
      <rect class="cls-3" x="90.71" y="23.5" width="4.54" height="4.7"/>
      <rect class="cls-3" x="86.18" y="23.5" width="4.54" height="4.7"/>
      <rect class="cls-3" x="81.64" y="23.5" width="4.54" height="4.7"/>
      <rect class="cls-3" x="77.11" y="23.5" width="4.54" height="4.7"/>
      <rect class="cls-6" x="72.57" y="23.5" width="4.54" height="4.7"/>
      <rect class="cls-6" x="68.04" y="23.5" width="4.54" height="4.7"/>
      <rect class="cls-6" x="63.5" y="23.5" width="4.54" height="4.7"/>
      <rect class="cls-6" x="113.39" y="18.8" width="4.54" height="4.7"/>
      <rect class="cls-3" x="108.86" y="18.8" width="4.54" height="4.7"/>
      <rect class="cls-3" x="104.32" y="18.8" width="4.54" height="4.7"/>
      <rect class="cls-3" x="99.79" y="18.8" width="4.54" height="4.7"/>
      <rect class="cls-3" x="95.25" y="18.8" width="4.54" height="4.7"/>
      <rect class="cls-3" x="90.71" y="18.8" width="4.54" height="4.7"/>
      <rect class="cls-3" x="86.18" y="18.8" width="4.54" height="4.7"/>
      <rect class="cls-3" x="81.64" y="18.8" width="4.54" height="4.7"/>
      <rect class="cls-6" x="77.11" y="18.8" width="4.54" height="4.7"/>
      <rect class="cls-6" x="72.57" y="18.8" width="4.54" height="4.7"/>
      <rect class="cls-6" x="68.04" y="18.8" width="4.54" height="4.7"/>
      <rect class="cls-6" x="63.5" y="18.8" width="4.54" height="4.7"/>
      <rect class="cls-6" x="58.96" y="18.8" width="4.54" height="4.7"/>
      <rect class="cls-6" x="54.43" y="18.8" width="4.54" height="4.7"/>
      <rect class="cls-6" x="108.86" y="14.1" width="4.54" height="4.7"/>
      <rect class="cls-3" x="104.32" y="14.1" width="4.54" height="4.7"/>
      <rect class="cls-3" x="99.79" y="14.1" width="4.54" height="4.7"/>
      <rect class="cls-3" x="95.25" y="14.1" width="4.54" height="4.7"/>
      <rect class="cls-3" x="90.71" y="14.1" width="4.54" height="4.7"/>
      <rect class="cls-3" x="86.18" y="14.1" width="4.54" height="4.7"/>
      <rect class="cls-6" x="81.64" y="14.1" width="4.54" height="4.7"/>
      <rect class="cls-6" x="77.11" y="14.1" width="4.54" height="4.7"/>
      <rect class="cls-6" x="72.57" y="14.1" width="4.54" height="4.7"/>
      <rect class="cls-6" x="68.04" y="14.1" width="4.54" height="4.7"/>
      <rect class="cls-6" x="63.5" y="14.1" width="4.54" height="4.7"/>
      <rect class="cls-6" x="104.32" y="9.4" width="4.54" height="4.7"/>
      <rect class="cls-6" x="99.79" y="9.4" width="4.54" height="4.7"/>
      <rect class="cls-6" x="95.25" y="9.4" width="4.54" height="4.7"/>
      <rect class="cls-1" x="90.71" y="9.4" width="4.54" height="4.7"/>
      <rect class="cls-3" x="86.18" y="9.4" width="4.54" height="4.7"/>
      <rect class="cls-6" x="81.64" y="9.4" width="4.54" height="4.7"/>
      <rect class="cls-6" x="77.11" y="9.4" width="4.54" height="4.7"/>
      <rect class="cls-6" x="72.57" y="9.4" width="4.54" height="4.7"/>
      <rect class="cls-6" x="68.04" y="9.4" width="4.54" height="4.7"/>
      <rect class="cls-6" x="99.79" y="4.7" width="4.54" height="4.7"/>
      <rect class="cls-6" x="90.71" y="4.7" width="4.54" height="4.7"/>
      <rect class="cls-1" x="86.18" y="4.7" width="4.54" height="4.7"/>
      <rect class="cls-6" x="81.64" y="4.7" width="4.54" height="4.7"/>
      <rect class="cls-6" x="99.79" width="4.54" height="4.7"/>
      <rect class="cls-6" x="86.18" width="4.54" height="4.7"/>
      <rect class="cls-6" x="81.64" width="4.54" height="4.7"/>
    </g>
  </g>
</svg>