<?xml version="1.0" encoding="UTF-8"?>
<svg id="_レイヤー_2" data-name="レイヤー 2" xmlns="http://www.w3.org/2000/svg" viewBox="0 0 100 66.42">
  <defs>
    <style>
      .cls-1 {
        fill: #969696;
      }
    </style>
  </defs>
  <g id="_レイヤー_1-2" data-name="レイヤー 1">
    <polygon class="cls-1" points="96.43 29.52 96.43 25.83 96.43 22.14 92.86 22.14 92.86 18.45 92.86 14.76 89.29 14.76 89.29 11.07 85.71 11.07 85.71 7.38 82.14 7.38 82.14 3.69 78.57 3.69 78.57 0 75 0 75 3.69 71.43 3.69 67.86 3.69 67.86 0 64.29 0 60.71 0 57.14 0 57.14 3.69 60.71 3.69 60.71 7.38 57.14 7.38 53.57 7.38 50 7.38 50 11.07 53.57 11.07 53.57 14.76 50 14.76 50 18.45 46.43 18.45 42.86 18.45 39.29 18.45 35.71 18.45 32.14 18.45 28.57 18.45 28.57 22.14 25 22.14 25 25.83 21.43 25.83 21.43 29.52 17.86 29.52 14.29 29.52 14.29 25.83 10.71 25.83 10.71 22.14 7.14 22.14 3.57 22.14 0 22.14 0 25.83 0 29.52 3.57 29.52 3.57 33.21 7.14 33.21 7.14 36.9 10.71 36.9 14.29 36.9 17.86 36.9 17.86 40.59 17.86 44.28 17.86 47.97 21.43 47.97 21.43 51.66 25 51.66 25 55.35 28.57 55.35 28.57 59.04 28.57 62.73 32.14 62.73 32.14 66.42 35.71 66.42 39.29 66.42 42.86 66.42 42.86 62.73 46.43 62.73 46.43 59.04 46.43 55.35 46.43 51.66 50 51.66 50 55.35 50 59.04 50 62.73 53.57 62.73 53.57 66.42 57.14 66.42 60.71 66.42 60.71 62.73 64.29 62.73 64.29 59.04 67.86 59.04 67.86 55.35 67.86 51.66 67.86 47.97 71.43 47.97 71.43 44.28 75 44.28 75 40.59 78.57 40.59 82.14 40.59 82.14 44.28 85.71 44.28 89.29 44.28 92.86 44.28 96.43 44.28 96.43 40.59 100 40.59 100 36.9 100 33.21 100 29.52 96.43 29.52"/>
  </g>
</svg>