<?xml version="1.0" encoding="UTF-8"?>
<svg id="_レイヤー_2" data-name="レイヤー 2" xmlns="http://www.w3.org/2000/svg" viewBox="0 0 52 54">
  <defs>
    <style>
      .cls-1 {
        fill: #ffbd00;
      }

      .cls-2 {
        fill: #ff0072;
      }
    </style>
  </defs>
  <g id="_レイヤー_1-2" data-name="レイヤー 1">
    <polygon class="cls-1" points="42.82 27 39.76 27 36.71 27 33.65 27 33.65 24 33.65 21 33.65 18 33.65 15 33.65 12 33.65 9 33.65 6 30.59 6 27.53 6 24.47 6 21.41 6 18.35 6 18.35 9 18.35 12 18.35 15 18.35 18 18.35 21 18.35 24 18.35 27 15.29 27 12.24 27 9.18 27 6.12 27 6.12 30 9.18 30 9.18 33 12.24 33 12.24 36 15.29 36 15.29 39 18.35 39 18.35 42 21.41 42 21.41 45 24.47 45 24.47 48 27.53 48 27.53 45 30.59 45 30.59 42 33.65 42 33.65 39 36.71 39 36.71 36 39.76 36 39.76 33 42.82 33 42.82 30 45.88 30 45.88 27 42.82 27"/>
    <path class="cls-2" d="M48.94,24v-3h-9.18V3h-3.06V0H15.29v3h-3.06v18H3.06v3H0v9h3.06v3h3.06v3h3.06v3h3.06v3h3.06v3h3.06v3h3.06v3h9.18v-3h3.06v-3h3.06v-3h3.06v-3h3.06v-3h3.06v-3h3.06v-3h3.06v-9h-3.06ZM45.88,30h-3.06v3h-3.06v3h-3.06v3h-3.06v3h-3.06v3h-3.06v3h-3.06v-3h-3.06v-3h-3.06v-3h-3.06v-3h-3.06v-3h-3.06v-3h-3.06v-3h12.24V6h15.29v21h12.24v3Z"/>
  </g>
</svg>