<?xml version="1.0" encoding="UTF-8"?>
<svg id="_レイヤー_2" data-name="レイヤー 2" xmlns="http://www.w3.org/2000/svg" viewBox="0 0 30 27">
  <defs>
    <style>
      .cls-1 {
        fill: #fff;
      }

      .cls-2 {
        opacity: .2;
      }
    </style>
  </defs>
  <g id="_レイヤー_1-2" data-name="レイヤー 1">
    <polygon class="cls-2" points="18 9 18 6 15 6 15 3 12 3 12 6 9 6 9 9 0 9 0 12 3 12 3 15 6 15 6 27 9 27 9 24 12 24 12 21 15 21 15 24 18 24 18 27 21 27 21 15 24 15 24 12 27 12 27 9 18 9"/>
    <polygon class="cls-1" points="21 6 21 3 18 3 18 0 15 0 15 3 12 3 12 6 3 6 3 9 6 9 6 12 9 12 9 24 12 24 12 21 15 21 15 18 18 18 18 21 21 21 21 24 24 24 24 12 27 12 27 9 30 9 30 6 21 6"/>
  </g>
</svg>