<?xml version="1.0" encoding="UTF-8"?>
<svg id="_レイヤー_2" data-name="レイヤー 2" xmlns="http://www.w3.org/2000/svg" viewBox="0 0 111 9">
  <defs>
    <style>
      .cls-1 {
        fill: #fff;
      }

      .cls-2 {
        opacity: .2;
      }
    </style>
  </defs>
  <g id="_レイヤー_1-2" data-name="レイヤー 1">
    <polygon class="cls-2" points="99 3 99 6 90 6 90 3 72 3 72 6 63 6 63 3 45 3 45 6 36 6 36 3 18 3 18 6 9 6 9 3 0 3 0 6 3 6 3 9 24 9 24 6 30 6 30 9 51 9 51 6 57 6 57 9 78 9 78 6 84 6 84 9 105 9 105 6 108 6 108 3 99 3"/>
    <polygon class="cls-1" points="102 0 102 3 93 3 93 0 75 0 75 3 66 3 66 0 48 0 48 3 39 3 39 0 21 0 21 3 12 3 12 0 3 0 3 3 6 3 6 6 27 6 27 3 33 3 33 6 54 6 54 3 60 3 60 6 81 6 81 3 87 3 87 6 108 6 108 3 111 3 111 0 102 0"/>
  </g>
</svg>