<?xml version="1.0" encoding="UTF-8"?>
<svg id="_レイヤー_2" data-name="レイヤー 2" xmlns="http://www.w3.org/2000/svg" viewBox="0 0 526.01 109.62">
  <defs>
    <style>
      .cls-1 {
        fill: #008cff;
      }

      .cls-2 {
        fill: #fff;
      }

      .cls-3 {
        fill: #004c7a;
      }
    </style>
  </defs>
  <g id="_レイヤー_1-2" data-name="レイヤー 1">
    <rect class="cls-3" y="13.46" width="526.01" height="96.15" rx="12.82" ry="12.82"/>
    <rect class="cls-1" width="526.01" height="96.15" rx="12.82" ry="12.82"/>
    <g>
      <path class="cls-2" d="M206.68,74.19c0,.66-.27,1.21-.71,1.65-.5.5-1.04.71-1.65.71h-48.12v-7.81h3.24l-.06-14.19h-4.95v-6.98h13.42c.99,0,1.54.55,1.54,1.6l-.05,19.58h37.34v5.45ZM158.78,43.01v-11.16h7.86c1.04,0,1.54.55,1.54,1.6v9.57h-9.4ZM198.98,61.32l3.85,3.13-2.53,3.13c-.55.71-1.32,1.04-2.25,1.04-.6,0-1.21-.22-1.76-.61l-5.94-4.78,1.48-1.93h-7.86l1.65,2.37-6.16,4.29c-.5.33-1.04.49-1.65.49-.94,0-1.71-.38-2.31-1.15l-2.36-3.24,3.9-2.75h-6.05v-5.66h5.77v-2.7h-4.67v-5.72h4.67v-2.8h7.64c1.04,0,1.59.5,1.59,1.54v1.26h4.34v-2.8h7.7c1.04,0,1.59.5,1.59,1.54v1.26h5.33v5.72h-5.33v2.7h5.88v5.66h-6.54ZM187.54,42.9c-.49.44-1.04.66-1.65.66h-11.55c-.66,0-1.21-.22-1.65-.66-.44-.5-.66-1.04-.66-1.71v-9.35h8.41v-1.59h-8.36v-4.84h13.75c1.04,0,1.54.55,1.54,1.54v9.51h-8.41v2.25h3.9v-1.81h5.39v4.29c0,.66-.27,1.21-.72,1.71ZM190.34,52.96h-4.34v2.7h4.34v-2.7ZM205.19,42.9c-.44.44-.99.66-1.65.66h-11.88c-.66,0-1.21-.22-1.65-.66-.44-.5-.66-1.04-.66-1.71v-9.51h8.41v-1.43h-8.36v-4.84h13.75c1.04,0,1.54.55,1.54,1.54v9.51h-8.41v2.25h4.23v-1.81h5.33v4.29c0,.66-.22,1.21-.66,1.71Z"/>
      <path class="cls-2" d="M254.31,44.66v26.51c0,.77-.27,1.48-.82,1.98-.55.55-1.21.82-1.98.82h-31.57c-.83,0-1.48-.28-2.04-.82-.55-.5-.82-1.21-.82-1.98v-32.28h-6.65v-8.91h21.5v35.14h7.53v-29.37h20.95v8.91h-6.1ZM245.45,34.05v-7.37h4.56c.71,0,1.04.33,1.04,1.04l.06,6.32h-5.66ZM253.04,34.05v-7.37h4.56c.71,0,1.1.33,1.1,1.04v6.32h-5.66Z"/>
      <path class="cls-2" d="M267.46,76.11v-24.64h7.09c1.04,0,1.54.5,1.54,1.54v16.11h37.78v6.98h-46.41ZM299.13,35.75v2.2h7.97c1.04,0,1.54.49,1.54,1.54l.05,27.33h-30.41v-28.87h8.52v-2.2h-16.11v-6.88h16.11v-4.4h10.78c1.04,0,1.54.5,1.54,1.54v2.86h15.23v6.88h-15.23ZM298.47,44.22h-10.01v2.09h10.01v-2.09ZM298.47,51.7h-10.01v2.09h10.01v-2.09ZM298.47,59.12h-10.01v2.2h10.01v-2.2Z"/>
      <path class="cls-2" d="M356.28,42.13v14.3l-1.76,17.38c-.06.77-.38,1.43-.99,1.92-.6.44-1.27.66-2.09.61l-10.56-.88.99-9.02-11.22-.05c-.99,0-1.54-.5-1.54-1.54l-.05-17.98c0-1.04.55-1.59,1.54-1.59h11.6v-3.13l-19.74.05-.06-8.19h19.8v-6.49h14.08v6.43h11.93v8.2h-11.93ZM342.2,52.96h-3.13v5.67h3.13v-5.67Z"/>
    </g>
  </g>
</svg>