<?xml version="1.0" encoding="UTF-8"?>
<svg id="_レイヤー_2" data-name="レイヤー 2" xmlns="http://www.w3.org/2000/svg" viewBox="0 0 195 228">
  <defs>
    <style>
      .cls-1 {
        fill: none;
      }

      .cls-2 {
        fill: #dcf6ff;
      }

      .cls-3 {
        fill: #0c8ee6;
      }

      .cls-4 {
        fill: #81b6c9;
      }

      .cls-5 {
        fill: #048ae5;
      }

      .cls-6 {
        fill: #0089e5;
      }

      .cls-7 {
        fill: #0c8fe6;
      }

      .cls-8 {
        fill: #006fad;
      }

      .cls-9 {
        fill: #1090e6;
      }

      .cls-10 {
        fill: #fff;
      }

      .cls-11 {
        opacity: .05;
      }

      .cls-12 {
        fill: #eff7fd;
      }

      .cls-13 {
        fill: #048be5;
      }

      .cls-14 {
        fill: #b8d9e8;
      }
    </style>
  </defs>
  <g id="_レイヤー_1-2" data-name="レイヤー 1">
    <g>
      <polygon class="cls-1" points="126 90 126 87 126 84 123 84 123 81 123 78 120 78 120 75 117 75 117 72 114 72 111 72 108 72 105 72 102 72 99 72 96 72 93 72 90 72 87 72 84 72 81 72 78 72 78 75 75 75 75 78 72 78 72 81 69 81 69 84 69 87 69 90 69 93 66 93 66 96 66 99 66 102 66 105 69 105 69 108 69 111 69 114 69 117 69 120 69 123 69 126 72 126 72 129 72 132 72 135 72 138 72 141 72 144 75 144 75 147 75 150 75 153 75 156 75 159 78 159 78 162 78 165 78 168 78 171 78 174 78 177 81 177 84 177 87 177 87 174 87 171 87 168 87 165 87 162 87 159 87 156 87 153 87 150 87 147 87 144 87 141 87 138 87 135 87 132 87 129 87 126 87 123 87 120 87 117 87 114 87 111 87 108 87 105 90 105 90 102 90 99 93 99 96 99 99 99 102 99 102 102 102 105 105 105 105 108 105 111 105 114 105 117 105 120 105 123 105 126 105 129 105 132 105 135 105 138 105 141 105 144 105 147 105 150 105 153 105 156 105 159 105 162 105 165 105 168 105 171 105 174 105 177 108 177 111 177 114 177 117 177 117 174 117 171 117 168 117 165 117 162 117 159 120 159 120 156 120 153 120 150 120 147 120 144 123 144 123 141 123 138 123 135 123 132 123 129 123 126 123 123 126 123 126 120 126 117 126 114 126 111 126 108 126 105 129 105 129 102 129 99 129 96 129 93 126 93 126 90"/>
      <polygon class="cls-11" points="48 222 48 225 48 228 147 228 147 225 147 222 48 222"/>
      <rect class="cls-4" x="69" y="198" width="3" height="3"/>
      <polygon class="cls-4" points="54 201 54 204 57 204 60 204 63 204 66 204 69 204 69 201 66 201 63 201 60 201 57 201 57 198 54 198 51 198 51 195 48 195 48 198 48 201 51 201 54 201"/>
      <polygon class="cls-4" points="144 195 144 198 144 201 144 204 144 207 144 210 144 213 144 216 144 219 141 219 138 219 135 219 132 219 129 219 126 219 123 219 120 219 117 219 114 219 111 219 108 219 105 219 102 219 99 219 96 219 93 219 90 219 87 219 84 219 81 219 78 219 75 219 72 219 69 219 66 219 63 219 60 219 57 219 54 219 51 219 48 219 48 222 147 222 147 219 147 216 147 213 147 210 147 207 147 204 147 201 147 198 147 195 144 195"/>
      <rect class="cls-4" x="72" y="195" width="3" height="3"/>
      <polygon class="cls-4" points="102 108 102 111 102 114 102 117 102 120 102 123 102 126 102 129 102 132 102 135 102 138 102 141 102 144 102 147 102 150 102 153 102 156 102 159 102 162 102 165 102 168 102 171 102 174 102 177 105 177 105 174 105 171 105 168 105 165 105 162 105 159 105 156 105 153 105 150 105 147 105 144 105 141 105 138 105 135 105 132 105 129 105 126 105 123 105 120 105 117 105 114 105 111 105 108 105 105 102 105 102 108"/>
      <rect class="cls-4" x="99" y="99" width="3" height="3"/>
      <polygon class="cls-2" points="132 216 129 216 126 216 123 216 120 216 117 216 114 216 111 216 108 216 105 216 102 216 99 216 96 216 93 216 90 216 87 216 84 216 81 216 78 216 75 216 72 216 69 216 66 216 63 216 60 216 57 216 54 216 51 216 51 219 54 219 57 219 60 219 63 219 66 219 69 219 72 219 75 219 78 219 81 219 84 219 87 219 90 219 93 219 96 219 99 219 102 219 105 219 108 219 111 219 114 219 117 219 120 219 123 219 126 219 129 219 132 219 135 219 138 219 138 216 135 216 132 216"/>
      <polygon class="cls-2" points="141 198 141 201 141 204 141 207 141 210 141 213 141 216 141 219 144 219 144 216 144 213 144 210 144 207 144 204 144 201 144 198 141 198"/>
      <rect class="cls-2" x="90" y="99" width="3" height="3"/>
      <rect class="cls-8" x="159" y="75" width="3" height="3"/>
      <polygon class="cls-8" points="156 72 153 72 150 72 147 72 144 72 141 72 138 72 135 72 132 72 129 72 126 72 123 72 123 69 120 69 117 69 117 72 117 75 120 75 123 75 126 75 129 75 132 75 135 75 138 75 141 75 144 75 147 75 150 75 153 75 156 75 159 75 159 72 156 72"/>
      <polygon class="cls-8" points="72 72 69 72 66 72 63 72 60 72 57 72 54 72 51 72 48 72 45 72 42 72 39 72 36 72 36 75 39 75 42 75 45 75 48 75 51 75 54 75 57 75 60 75 63 75 66 75 69 75 72 75 72 78 75 78 75 75 78 75 78 72 75 72 72 72"/>
      <rect class="cls-8" x="54" y="69" width="3" height="3"/>
      <rect class="cls-7" y="60" width="3" height="3"/>
      <rect class="cls-13" x="192" y="57" width="3" height="3"/>
      <rect class="cls-9" x="117" y="33" width="3" height="3"/>
      <rect class="cls-3" x="120" y="27" width="3" height="3"/>
      <rect class="cls-7" x="183" y="24" width="3" height="3"/>
      <rect class="cls-12" x="108" y="15" width="3" height="3"/>
      <rect class="cls-5" x="90" y="15" width="3" height="3"/>
      <path class="cls-6" d="M78,174v-15h-3v-15h-3v-18h-3v-21h-3v-12h3v-12h3v-6h-39v12h-3v24h3v15h3v18h3v15h3v24h3v9h3v3h3v3h6v3h12v-3h3v-3h3v-3h3v-3h3v-12h-3v-3ZM66,123h-3v3h-3v12h-3v-3h-3v-3h-3v3h-3v3h-3v-12h-3v-3h-3v-3h9v-3h3v-3h3v3h3v3h9v3ZM45,156h9v-3h3v-3h3v3h3v3h9v3h-3v3h-3v12h-3v-3h-3v-3h-3v3h-3v3h-3v-12h-3v-3h-3v-3Z"/>
      <path class="cls-6" d="M162,84v-6h-3v-3h-39v3h3v6h3v9h3v12h-3v18h-3v21h-3v15h-3v18h-3v12h3v3h3v3h3v3h3v3h12v-3h6v-3h3v-3h3v-15h3v-15h3v-18h3v-15h3v-18h3v-24h-3v-3ZM129,120h9v-3h3v-3h3v3h3v3h9v3h-3v3h-3v12h-3v-3h-3v-3h-3v3h-3v3h-3v-12h-3v-3h-3v-3ZM123,156h9v-3h3v-3h3v3h3v3h9v3h-3v3h-3v12h-3v-3h-3v-3h-3v3h-3v3h-3v-12h-3v-3h-3v-3Z"/>
      <polygon class="cls-6" points="78 48 81 48 81 45 81 42 81 39 81 36 81 33 81 30 81 27 81 24 78 24 75 24 72 24 72 27 72 30 72 33 72 36 72 39 72 42 72 45 72 48 75 48 78 48"/>
      <polygon class="cls-6" points="123 42 126 42 126 39 126 36 126 33 123 33 123 30 120 30 120 33 120 36 117 36 117 39 117 42 120 42 123 42"/>
      <path class="cls-6" d="M192,36v-6h-3v-3h-6v-3h-6v-15h-3v-3h-3v-3h-3V0h-27v3h-6V0h-30v3h-12V0h-33v3h-3V0H12v3h-6v3h-3v6H0v48h3v6h3v3h3v3h45v-3h3v3h60v-3h6v3h63v-3h3v-3h3v-9h3v-21h-3ZM180,51v6h-33V15h15v33h6v-9h12v12ZM42,57H15V18h3v-3h33v9h-21v24h9v-6h-6v-9h18v24h-9ZM72,15h21v6h3v30h-3v6h-33v-6h-3v-30h3v-3h3v-3h9ZM105,57h-6v-6h3v-12h3v-12h3v-12h24v6h3v12h3v12h3v9h3v3h-15v-6h-15v6h-9Z"/>
      <polygon class="cls-10" points="42 54 45 54 48 54 48 51 48 48 48 45 48 42 48 39 48 36 48 33 45 33 42 33 39 33 36 33 33 33 33 36 33 39 33 42 36 42 39 42 39 45 39 48 36 48 33 48 30 48 27 48 27 45 27 42 27 39 27 36 27 33 27 30 27 27 27 24 30 24 30 21 33 21 36 21 39 21 42 21 45 21 48 21 51 21 51 18 51 15 48 15 45 15 42 15 39 15 36 15 33 15 30 15 27 15 24 15 21 15 18 15 18 18 15 18 15 21 15 24 15 27 15 30 15 33 15 36 15 39 15 42 15 45 15 48 15 51 15 54 18 54 21 54 24 54 27 54 30 54 33 54 36 54 39 54 42 54"/>
      <path class="cls-10" d="M126,48h3v6h9v-9h-3v-12h-3v-12h-3v-6h-18v3h-3v9h-3v12h-3v12h-3v3h12v-6h15ZM114,39v-6h3v-6h6v6h3v9h-12v-3Z"/>
      <polygon class="cls-10" points="174 39 171 39 168 39 168 42 168 45 168 48 165 48 162 48 159 48 159 45 159 42 159 39 159 36 159 33 159 30 159 27 159 24 159 21 159 18 159 15 156 15 153 15 150 15 147 15 147 18 147 21 147 24 147 27 147 30 147 33 147 36 147 39 147 42 147 45 147 48 147 51 147 54 150 54 153 54 156 54 159 54 162 54 165 54 168 54 171 54 174 54 177 54 177 51 177 48 177 45 177 42 177 39 174 39"/>
      <path class="cls-10" d="M90,18v-3h-27v3h-3v3h-3v30h3v3h30v-3h3v-30h-3v-3ZM69,45v-21h3v-3h9v27h-12v-3Z"/>
      <polygon class="cls-10" points="147 120 144 120 144 117 144 114 141 114 141 117 138 117 138 120 135 120 132 120 129 120 129 123 132 123 135 123 135 126 135 129 135 132 135 135 138 135 138 132 141 132 144 132 144 135 147 135 147 132 147 129 147 126 150 126 150 123 147 123 147 120"/>
      <polygon class="cls-10" points="141 156 138 156 138 153 138 150 135 150 135 153 132 153 132 156 129 156 126 156 123 156 123 159 126 159 129 159 129 162 129 165 129 168 129 171 132 171 132 168 135 168 138 168 138 171 141 171 141 168 141 165 141 162 144 162 144 159 141 159 141 156"/>
      <polygon class="cls-10" points="45 126 45 129 45 132 45 135 48 135 48 132 51 132 54 132 54 135 57 135 57 132 57 129 57 126 60 126 60 123 57 123 57 120 54 120 54 117 54 114 51 114 51 117 48 117 48 120 45 120 42 120 39 120 39 123 42 123 45 123 45 126"/>
      <polygon class="cls-10" points="63 156 60 156 60 153 60 150 57 150 57 153 54 153 54 156 51 156 48 156 45 156 45 159 48 159 51 159 51 162 51 165 51 168 51 171 54 171 54 168 57 168 60 168 60 171 63 171 63 168 63 165 63 162 66 162 66 159 63 159 63 156"/>
      <polygon class="cls-14" points="138 201 135 201 132 201 129 201 126 201 126 198 123 198 123 195 120 195 120 192 117 192 117 189 114 189 114 186 114 183 114 180 114 177 111 177 108 177 105 177 102 177 102 174 102 171 102 168 102 165 102 162 102 159 102 156 102 153 102 150 102 147 102 144 102 141 102 138 102 135 102 132 102 129 102 126 102 123 102 120 102 117 102 114 102 111 102 108 102 105 102 102 99 102 99 99 96 99 93 99 93 102 90 102 90 105 87 105 87 108 87 111 87 114 87 117 87 120 87 123 87 126 87 129 87 132 87 135 87 138 87 141 87 144 87 147 87 150 87 153 87 156 87 159 87 162 87 165 87 168 87 171 87 174 87 177 84 177 81 177 81 180 81 183 81 186 81 189 78 189 78 192 75 192 75 195 75 198 72 198 72 201 69 201 69 204 66 204 63 204 60 204 57 204 54 204 54 201 51 201 48 201 48 204 48 207 48 210 48 213 48 216 48 219 51 219 51 216 54 216 57 216 60 216 63 216 66 216 69 216 72 216 75 216 78 216 81 216 84 216 87 216 90 216 93 216 96 216 99 216 102 216 105 216 108 216 111 216 114 216 117 216 120 216 123 216 126 216 129 216 132 216 135 216 138 216 138 219 141 219 141 216 141 213 141 210 141 207 141 204 141 201 141 198 138 198 138 201"/>
      <polygon class="cls-14" points="105 57 108 57 111 57 114 57 114 54 114 51 117 51 120 51 123 51 126 51 129 51 129 48 126 48 123 48 120 48 117 48 114 48 111 48 111 51 111 54 108 54 105 54 102 54 99 54 99 57 102 57 105 57"/>
      <polygon class="cls-14" points="66 57 69 57 72 57 75 57 78 57 81 57 84 57 87 57 90 57 93 57 93 54 93 51 90 51 90 54 87 54 84 54 81 54 78 54 75 54 72 54 69 54 66 54 63 54 60 54 60 57 63 57 66 57"/>
      <polygon class="cls-14" points="45 57 48 57 51 57 51 54 51 51 51 48 51 45 51 42 51 39 51 36 51 33 48 33 48 36 48 39 48 42 48 45 48 48 48 51 48 54 45 54 42 54 39 54 36 54 33 54 30 54 27 54 24 54 21 54 18 54 15 54 15 57 18 57 21 57 24 57 27 57 30 57 33 57 36 57 39 57 42 57 45 57"/>
      <polygon class="cls-14" points="138 51 138 54 135 54 132 54 129 54 129 57 132 57 135 57 138 57 141 57 144 57 144 54 141 54 141 51 141 48 141 45 138 45 138 48 138 51"/>
      <polygon class="cls-14" points="96 48 96 45 96 42 96 39 96 36 96 33 96 30 96 27 96 24 96 21 93 21 93 24 93 27 93 30 93 33 93 36 93 39 93 42 93 45 93 48 93 51 96 51 96 48"/>
      <polygon class="cls-14" points="162 45 162 42 162 39 162 36 162 33 162 30 162 27 162 24 162 21 162 18 162 15 159 15 159 18 159 21 159 24 159 27 159 30 159 33 159 36 159 39 159 42 159 45 159 48 162 48 162 45"/>
      <polygon class="cls-14" points="72 45 72 42 72 39 72 36 72 33 72 30 72 27 72 24 69 24 69 27 69 30 69 33 69 36 69 39 69 42 69 45 69 48 72 48 72 45"/>
      <polygon class="cls-14" points="30 45 30 42 30 39 30 36 30 33 30 30 30 27 30 24 27 24 27 27 27 30 27 33 27 36 27 39 27 42 27 45 27 48 30 48 30 45"/>
      <polygon class="cls-14" points="177 39 177 42 177 45 177 48 177 51 177 54 174 54 171 54 168 54 165 54 162 54 159 54 156 54 153 54 150 54 147 54 147 57 150 57 153 57 156 57 159 57 162 57 165 57 168 57 171 57 174 57 177 57 180 57 180 54 180 51 180 48 180 45 180 42 180 39 177 39"/>
      <polygon class="cls-14" points="117 39 117 36 117 33 114 33 114 36 114 39 114 42 117 42 117 39"/>
      <polygon class="cls-14" points="135 39 135 42 135 45 138 45 138 42 138 39 138 36 138 33 135 33 135 36 135 39"/>
      <polygon class="cls-14" points="120 30 120 27 117 27 117 30 117 33 120 33 120 30"/>
      <polygon class="cls-14" points="132 27 132 30 132 33 135 33 135 30 135 27 135 24 135 21 132 21 132 24 132 27"/>
      <polygon class="cls-14" points="78 24 81 24 81 21 78 21 75 21 72 21 72 24 75 24 78 24"/>
      <polygon class="cls-14" points="36 24 39 24 42 24 45 24 48 24 51 24 51 21 48 21 45 21 42 21 39 21 36 21 33 21 30 21 30 24 33 24 36 24"/>
      <polygon class="cls-14" points="132 18 132 15 129 15 129 18 129 21 132 21 132 18"/>
      <rect class="cls-14" x="90" y="18" width="3" height="3"/>
      <rect class="cls-14" x="144" y="117" width="3" height="3"/>
      <polygon class="cls-14" points="147 129 147 132 147 135 147 138 150 138 150 135 150 132 150 129 150 126 147 126 147 129"/>
      <polygon class="cls-14" points="150 120 147 120 147 123 150 123 150 126 153 126 153 123 156 123 156 120 153 120 150 120"/>
      <rect class="cls-14" x="132" y="123" width="3" height="3"/>
      <rect class="cls-14" x="138" y="132" width="3" height="3"/>
      <rect class="cls-14" x="135" y="135" width="3" height="3"/>
      <rect class="cls-14" x="138" y="153" width="3" height="3"/>
      <polygon class="cls-14" points="141 165 141 168 141 171 141 174 144 174 144 171 144 168 144 165 144 162 141 162 141 165"/>
      <polygon class="cls-14" points="144 156 141 156 141 159 144 159 144 162 147 162 147 159 150 159 150 156 147 156 144 156"/>
      <rect class="cls-14" x="126" y="159" width="3" height="3"/>
      <rect class="cls-14" x="132" y="168" width="3" height="3"/>
      <rect class="cls-14" x="129" y="171" width="3" height="3"/>
      <rect class="cls-14" x="54" y="117" width="3" height="3"/>
      <polygon class="cls-14" points="60 123 60 126 63 126 63 123 66 123 66 120 63 120 60 120 57 120 57 123 60 123"/>
      <polygon class="cls-14" points="57 129 57 132 57 135 57 138 60 138 60 135 60 132 60 129 60 126 57 126 57 129"/>
      <rect class="cls-14" x="42" y="123" width="3" height="3"/>
      <rect class="cls-14" x="48" y="132" width="3" height="3"/>
      <rect class="cls-14" x="45" y="135" width="3" height="3"/>
      <rect class="cls-14" x="60" y="153" width="3" height="3"/>
      <polygon class="cls-14" points="63 165 63 168 63 171 63 174 66 174 66 171 66 168 66 165 66 162 63 162 63 165"/>
      <polygon class="cls-14" points="69 162 69 159 72 159 72 156 69 156 66 156 63 156 63 159 66 159 66 162 69 162"/>
      <rect class="cls-14" x="48" y="159" width="3" height="3"/>
      <rect class="cls-14" x="54" y="168" width="3" height="3"/>
      <rect class="cls-14" x="51" y="171" width="3" height="3"/>
    </g>
  </g>
</svg>